<svg xmlns="http://www.w3.org/2000/svg" xmlns:xlink="http://www.w3.org/1999/xlink" viewBox="0 0 786.6 739.3"><defs><clipPath id="a" transform="translate(-6.6 -59)"><polygon points="702.1 767.2 640.5 767.2 632.8 651.4 709.5 651.4 702.1 767.2" fill="none"/></clipPath></defs><title>coding-svg-2</title><path d="M765.4,555H34.4A27.87,27.87,0,0,1,6.6,527.2V86.8A27.87,27.87,0,0,1,34.4,59h731a27.87,27.87,0,0,1,27.8,27.8V527.2A27.87,27.87,0,0,1,765.4,555Z" transform="translate(-6.6 -59)" fill="#0e538c"/><path d="M793.2,148H6.6V87A27.87,27.87,0,0,1,34.4,59.2h731A27.87,27.87,0,0,1,793.2,87v61Z" transform="translate(-6.6 -59)" fill="#32324b"/><path d="M120.3,202.7H53.9c-3.1,0-5.7-3-5.7-6.1s2.6-6.1,5.7-6.1h66.4c3.1,0,5.7,3,5.7,6.1A6,6,0,0,1,120.3,202.7Z" transform="translate(-6.6 -59)" fill="#ffbe55"/><path d="M143.4,230.5H53.9c-3.1,0-5.7-1.2-5.7-4.3s2.6-4.3,5.7-4.3h89.6c3.1,0,5.7,1.2,5.7,4.3S146.7,230.5,143.4,230.5Z" transform="translate(-6.6 -59)" fill="#ffbe55"/><path d="M143.4,347H53.9c-3.1,0-5.7-3-5.7-6.1s2.6-6.1,5.7-6.1h89.6c3.1,0,5.7,3,5.7,6.1A6,6,0,0,1,143.4,347Z" transform="translate(-6.6 -59)" fill="#ffbe55"/><path d="M111.6,374.8H53.7c-3.1,0-5.7-1.2-5.7-4.3s2.6-4.3,5.7-4.3h57.9c3.1,0,5.7,1.2,5.7,4.3S114.9,374.8,111.6,374.8Z" transform="translate(-6.6 -59)" fill="#ffbe55"/><path d="M111.6,463.5H53.7c-3.1,0-5.7-3-5.7-6.1s2.6-6.1,5.7-6.1h57.9c3.1,0,5.7,3,5.7,6.1A5.92,5.92,0,0,1,111.6,463.5Z" transform="translate(-6.6 -59)" fill="#ffbe55"/><path d="M111.6,491.4H53.7c-3.1,0-5.7-2.1-5.7-5.2s2.6-5.2,5.7-5.2h57.9c3.1,0,5.7,2.1,5.7,5.2S114.9,491.4,111.6,491.4Z" transform="translate(-6.6 -59)" fill="#ffbe55"/><path d="M201.3,261.8H111.7c-3.1,0-5.7-3-5.7-6.1s2.6-6.1,5.7-6.1h89.6c3.1,0,5.7,3,5.7,6.1A6,6,0,0,1,201.3,261.8Z" transform="translate(-6.6 -59)" fill="#2a94f4"/><path d="M320,261.8H230.4c-3.1,0-5.7-3-5.7-6.1s2.6-6.1,5.7-6.1H320c3.1,0,5.7,3,5.7,6.1S323.1,261.8,320,261.8Z" transform="translate(-6.6 -59)" fill="#2a94f4"/><path d="M574.4,261.8H484.8c-3.1,0-5.7-3-5.7-6.1s2.6-6.1,5.7-6.1h89.6c3.1,0,5.7,3,5.7,6.1S577.5,261.8,574.4,261.8Z" transform="translate(-6.6 -59)" fill="#2a94f4"/><path d="M687.1,261.8H597.5c-3.1,0-5.7-3-5.7-6.1s2.6-6.1,5.7-6.1h89.6c3.1,0,5.7,3,5.7,6.1A5.91,5.91,0,0,1,687.1,261.8Z" transform="translate(-6.6 -59)" fill="#2a94f4"/><path d="M565.7,289.6H476.1c-3.1,0-5.7-2.1-5.7-5.2s2.6-5.2,5.7-5.2h89.6c3.1,0,5.7,2.1,5.7,5.2S568.8,289.6,565.7,289.6Z" transform="translate(-6.6 -59)" fill="#2a94f4"/><path d="M565.7,402.7H476.1c-3.1,0-5.7-3-5.7-6.1s2.6-6.1,5.7-6.1h89.6c3.1,0,5.7,3,5.7,6.1A6.05,6.05,0,0,1,565.7,402.7Z" transform="translate(-6.6 -59)" fill="#2a94f4"/><path d="M632.2,430.5H542.6c-3.1,0-5.7-1.2-5.7-4.3s2.6-4.3,5.7-4.3h89.6c3.1,0,5.7,1.2,5.7,4.3S635.5,430.5,632.2,430.5Z" transform="translate(-6.6 -59)" fill="#2a94f4"/><path d="M189.7,289.6H111.6c-3.1,0-5.7-2.1-5.7-5.2s2.6-5.2,5.7-5.2h78.1c3.1,0,5.7,2.1,5.7,5.2S193,289.6,189.7,289.6Z" transform="translate(-6.6 -59)" fill="#2a94f4"/><path d="M288.1,289.6H210c-3.1,0-5.7-2.1-5.7-5.2s2.6-5.2,5.7-5.2h78.1c3.1,0,5.7,2.1,5.7,5.2S291.3,289.6,288.1,289.6Z" transform="translate(-6.6 -59)" fill="#2a94f4"/><path d="M340.1,319.2H111.6c-3.1,0-5.7-3-5.7-6.1s2.6-6.1,5.7-6.1H340.1c3.1,0,5.7,3,5.7,6.1A6,6,0,0,1,340.1,319.2Z" transform="translate(-6.6 -59)" fill="#2a94f4"/><path d="M308.3,402.7H111.6c-3.1,0-5.7-3-5.7-6.1s2.6-6.1,5.7-6.1H308.3c3.1,0,5.7,3,5.7,6.1S311.4,402.7,308.3,402.7Z" transform="translate(-6.6 -59)" fill="#2a94f4"/><path d="M340.1,430.5H111.6c-3.1,0-5.7-1.2-5.7-4.3s2.6-4.3,5.7-4.3H340.1c3.1,0,5.7,1.2,5.7,4.3S343.3,430.5,340.1,430.5Z" transform="translate(-6.6 -59)" fill="#2a94f4"/><path d="M269.9,662.5a470.35,470.35,0,0,0,0-47.5c-3-57.7-.7-94.1-.7-119.3,0-15.1,9.7-64.4,34.1-67.1,26.6-3.1,65.6-10.6,126.4-7,82.6,4.9,88,23.7,87.7,76.9-.2,19.8,5.2,278.8,5.2,278.8-87.7,33.6-250.8,3.5-250.8,3.5C278.6,767.7,266.4,724.6,269.9,662.5Z" transform="translate(-6.6 -59)" fill="#32324b"/><path d="M565.2,547.7s37.9,86.3,29.7,138.1c-5.6,35.3-87.3,63.5-111.5,57.6s-21.4-11.3.9-22.4,69-25.9,52.4-67.7-44.9-127.5-44.9-127.5Z" transform="translate(-6.6 -59)" fill="#fcd2b1"/><path d="M485.2,429.8s30.8,1.2,55,30.1c7.1,8.5,9.7,22.1,15.8,35.7,4.5,10.1,1.9,20.9,5,34.1,0,0,15.8,38.3,15.8,42.6,0,0-60.9,10.3-71.5,17S462.6,429.5,485.2,429.8Z" transform="translate(-6.6 -59)" fill="#32324b"/><path d="M229,541.5s-41.2,94.8-33,146.6c5.6,35.3,80.7,63.7,104.9,57.7s30.3-14.6,8-25.7-76.4-34.6-59.8-76.5c16.5-41.7,48.7-117.9,48.7-117.9Z" transform="translate(-6.6 -59)" fill="#fcd2b1"/><path d="M300.5,429.8s-32.2,1.7-51.5,16.3c-11,8.3-13.4,21.6-14.6,39-1.2,18.8-10.6,34.1-15.8,53.6-3,10.6-7,32.3-7,34.8,0,0,49.7,3.1,69.7,9.2C293.5,586.5,323.1,429.5,300.5,429.8Z" transform="translate(-6.6 -59)" fill="#32324b"/><path d="M429.2,426V353.8H354.9v69.9s2.3,47,39.5,47.5C423.3,471.7,429.2,426,429.2,426Z" transform="translate(-6.6 -59)" fill="#fcd2b1"/><path d="M429.2,390.3s-7.7,22.1-35,22.1c-17.9,0-39.1-20-39.1-26.6l-.2-21.9,74.3,4Z" transform="translate(-6.6 -59)" fill="#f4c6a4"/><ellipse cx="325" cy="309.19" rx="18.1" ry="23.3" transform="translate(-99.87 88.1) rotate(-22.39)" fill="#fcd2b1"/><ellipse cx="470.34" cy="309.18" rx="23.3" ry="18.1" transform="translate(-17.81 541.6) rotate(-64.5)" fill="#fcd2b1"/><path d="M425,350.7c-9.4,6.3-31.1,12.2-55.1,1.7-1.9-.9-3.7,1.2-3,3.1,3.1,10.3,12.7,22.4,33.9,22.1,18.1-.3,25.2-15.5,27.7-23.5C429,352.1,426.7,349.5,425,350.7Z" transform="translate(-6.6 -59)" fill="#fff"/><rect x="252.1" y="699.7" width="271.7" height="9.4" fill="#878787"/><circle cx="745.2" cy="44.6" r="16.9" fill="#cce9ff"/><circle cx="692.3" cy="44.6" r="16.9" fill="#cce9ff"/><circle cx="639.6" cy="44.3" r="14.8" fill="#cce9ff"/><polygon points="695.5 708.9 633.9 708.9 626.2 593.1 702.9 593.1 695.5 708.9" fill="#0e538c"/><polygon points="700.5 587.5 628.7 587.5 631.3 574.3 698.1 574.3 700.5 587.5" fill="#2a94f4"/><polygon points="706.9 597.9 622.4 597.9 624.9 584.6 704.3 584.6 706.9 597.9" fill="#0b4870"/><g clip-path="url(#a)"><rect x="620.7" y="624.9" width="88.2" height="44.2" fill="#ffbe55"/></g><path d="M536.8,509.6" transform="translate(-6.6 -59)" fill="#ffbe55"/><path d="M328.5,304.9s-41.7-37.9-21.2-78.3a46.69,46.69,0,0,0,4.7-22.3c-.2-6.8,1.7-15.5,9.9-23.3,16.2-15.7,37-29,68-28s54.8,10.4,66.6,0c10.3-8.9,12.7-3.1,11.1,12.7a19.77,19.77,0,0,0,4.2,14.3c4.3,5.4,9.6,14.1,9.7,25a54.32,54.32,0,0,0,4.3,20c6.6,14.8,13.2,45-17,81.9" transform="translate(-6.6 -59)"/><rect x="42.2" y="708.9" width="707.5" height="30.4" fill="#192541"/><ellipse cx="389.5" cy="240.5" rx="73.6" ry="106.6" fill="#fcd2b1"/><ellipse cx="389.9" cy="159.3" rx="82.4" ry="39.1"/><path d="M496.54,601.3v6.13H475.89V583.87h20.22V590H484.49v2.9h9.36v5.6h-9.36v2.8Zm-31.84,6-4.31-7.74H458v7.74h-8.4V583.87h13.24c3.23,0,5.7.64,7.31,1.93a7.09,7.09,0,0,1,2.48,5.92,7,7,0,0,1-4.41,7l5.81,8.72-9.36-.11Zm-1.29-17.11a3.89,3.89,0,0,0-2.26-.53h-3V594h3a4,4,0,0,0,2.26-.43,2.45,2.45,0,0,0,.64-1.72,2.38,2.38,0,0,0-.64-1.62Zm-29,17.43c-7.85,0-11.72-3.44-11.72-10.43V583.87h8.6v14a4,4,0,0,0,.76,2.69,3.77,3.77,0,0,0,1.07.76,5.79,5.79,0,0,0,1.29.21,2.78,2.78,0,0,0,1.29-.21,2.43,2.43,0,0,0,1.08-.76,4,4,0,0,0,.86-2.69v-14h8.61v13.34c-.11,7-4,10.43-11.84,10.43Zm-21.62-.32h-8.61V589.89h-7.64v-6h23.89V590h-7.64v17.32Zm-30.34.32c-7.86,0-11.73-3.44-11.73-10.43V583.87h8.61v14a3.92,3.92,0,0,0,.75,2.69,3.77,3.77,0,0,0,1.07.76,6,6,0,0,0,1.3.21,2.78,2.78,0,0,0,1.29-.21,2.41,2.41,0,0,0,1.07-.76,4,4,0,0,0,.86-2.69v-14h8.61v13.34c0,7-4,10.43-11.83,10.43ZM357,593.23h9.36v6.13H357v8.07h-8.61V583.87h20.23V590H357v3.23Zm137.74-54.44h-9.57l-4.52-8.72-1.94,2.58v6.14H470.1V515.44h8.61v8.71l6.35-8.71h9.14l-7.53,9.25Zm-37.87-5.92a3.23,3.23,0,0,0,2.47-.76,3.37,3.37,0,0,0,1-2.47l7.53,1.83c-1.29,5.06-4.95,7.53-11.19,7.53a13.81,13.81,0,0,1-6.56-1.4,10.54,10.54,0,0,1-4.3-4.09,13.48,13.48,0,0,1-1.51-6.45,12.14,12.14,0,0,1,1.51-6.46,9.88,9.88,0,0,1,4.3-4.09,14.06,14.06,0,0,1,6.56-1.4,14.41,14.41,0,0,1,7.32,1.73,8.1,8.1,0,0,1,2.47,2.26,8.18,8.18,0,0,1,1.3,3l-7.32,2.8a5.33,5.33,0,0,0-1.08-2.91,5.5,5.5,0,0,0-1.07-.64,2.59,2.59,0,0,0-1.29-.11,4,4,0,0,0-1.62.32,2.32,2.32,0,0,0-1.18,1.08,10.51,10.51,0,0,0,0,8.82,3.61,3.61,0,0,0,1.18,1.07A2.37,2.37,0,0,0,456.87,532.87Zm-21,5.92-1.08-4.42h-6.56l-1.18,4.42h-8.5l7.85-23.35h10.33l8,23.35Zm-4.31-17.43h-.1l-1,4-1,3.87h4Zm-23,8.71h-6.67v8.72h-8.61V515.44h8.61v8.61h6.67v-8.61h8.61v23.35h-8.61ZM348,567.3v6.24s-12.81.54-12.16-12.59c.11-12.27,12.05-11.51,12.05-11.51v6s-3.55-.32-3.44,5.92,2.8,5.81,3.55,5.92Zm46.91-11.95v-6.24S406.92,548,407,561.38c-.11,12.48-12.16,11.84-12.16,11.84v-6.14s3.76,0,3.44-6.35-3.44-5.38-3.44-5.38Zm65.85,17.54h-9.36l-4.31-7.74h-2.37v7.74h-8.39V549.44h13.24c3.22,0,5.7.64,7.31,1.93a7.09,7.09,0,0,1,2.48,5.92c0,3.44-1.51,5.7-4.41,6.89Zm-10.66-17a3.86,3.86,0,0,0-2.26-.54h-3.12v4.31h3.12a4,4,0,0,0,2.26-.43,2.45,2.45,0,0,0,.65-1.72A2,2,0,0,0,450.06,555.89Zm-28.72,17.43c-7.86,0-11.84-3.44-11.84-10.43V549.44h8.61v14a3.92,3.92,0,0,0,.75,2.69,3.82,3.82,0,0,0,1.08.76,5.79,5.79,0,0,0,1.29.21,2.78,2.78,0,0,0,1.29-.21,2.49,2.49,0,0,0,1.08-.76,4.06,4.06,0,0,0,.86-2.69v-14h8.6v13.34C433.17,569.77,429.19,573.32,421.34,573.32Zm-93.07-.43h-8.61v-8.17l-8.5-15.39h8.61l2.58,5.38,1.72,4.3,1.72-4.3,2.59-5.38h8.5l-8.5,15.39v8.17Z" transform="translate(-6.6 -59)" fill="#fff" fill-rule="evenodd"/><rect x="256.7" y="536.2" width="262.5" height="163.5" fill="#bbbcbc"/><rect x="418.59" y="636.08" width="82.3" height="81.6" transform="translate(-75.95 -6.29) rotate(-6.1)" fill="#ffbe55"/><path d="M495.1,633.3l8.3,78.6-79.3,8.5-8.3-78.8,79.3-8.3m2.3-2.8-2.4.3-79.3,8.5-2.4.3.3,2.4,8.3,78.6.3,2.4,2.4-.3,79.3-8.5,2.4-.3-.3-2.4-8.5-78.6-.1-2.4Z" transform="translate(-6.6 -59)" fill="#f7f7f7"/><path d="M490.7,675.7c-1.9,1.6-3.7,3-5.4,4.3-.3-.3-.7-.9-1-1.2a4.86,4.86,0,0,0-4.7-1.4,3,3,0,0,0-2.4,2.4,3.08,3.08,0,0,0,1.2,3.3c1,.7,2.3,1,3.3,1.6a72.13,72.13,0,0,1,7.7,3,10.53,10.53,0,0,1,5.7,11.3,8.67,8.67,0,0,1-4.3,6.6c-5.6,3.3-11.3,3.5-17,.3a12.62,12.62,0,0,1-4.3-4.3l5.7-4.2a10.7,10.7,0,0,1,1.4,1.6,7.41,7.41,0,0,0,8.5,1.6,3.21,3.21,0,0,0,2.3-3.1,3.38,3.38,0,0,0-2.1-3.3c-1.9-.7-3.8-1.4-5.9-2.1a51.56,51.56,0,0,1-4.9-2.1,10.13,10.13,0,0,1-5-11c.7-4,3.8-7.1,8.3-8,4.9-.9,9-.2,12.3,4C490.4,675.2,490.4,675.4,490.7,675.7Z" transform="translate(-6.6 -59)" fill="#303030"/><path d="M449,700.8c.7.7,1,1.4,1.6,1.9a4.28,4.28,0,0,0,4.3,1.2,3,3,0,0,0,2.6-3v-2.3c-.9-7.8-1.6-15.7-2.6-23.5-.2-1.2.2-1.6,1.4-1.7a25,25,0,0,0,4.7-.5c1-.2,1.4.2,1.6,1.2.7,7.7,1.6,15.1,2.4,22.8,0,.9.2,1.6.2,2.4.3,6.3-2.4,9.9-8.5,11.3a12.22,12.22,0,0,1-12.9-4.5c-.5-.9-.5-1.2.3-1.7A46.81,46.81,0,0,0,449,700.8Z" transform="translate(-6.6 -59)" fill="#303030"/></svg>