<?xml version="1.0" encoding="utf-8"?>
<!-- Generator: Adobe Illustrator 23.0.1, SVG Export Plug-In . SVG Version: 6.00 Build 0)  -->
<svg version="1.1" id="Layer_1" xmlns="http://www.w3.org/2000/svg" xmlns:xlink="http://www.w3.org/1999/xlink" x="0px" y="0px"
	 viewBox="0 0 800 800" style="enable-background:new 0 0 800 800;" xml:space="preserve">
<style type="text/css">
	.st0{fill:#0E538C;}
	.st1{fill:#00021D;}
	.st2{fill:#FFBE55;}
	.st3{fill:#2A94F4;}
	.st4{fill:#FCD2B1;}
	.st5{fill:#F4C6A4;}
	.st6{fill:#FFFFFF;}
	.st7{fill:#878787;}
	.st8{fill:#CCE9FF;}
	.st9{fill:#0B4870;}
	.st10{clip-path:url(#SVGID_2_);fill:#FFBE55;}
	.st11{fill:#192541;}
	.st12{fill-rule:evenodd;clip-rule:evenodd;fill:#FFFFFF;}
	.st13{fill:#BBBCBC;}
	.st14{fill:#F7F7F7;}
	.st15{fill:#303030;}
</style>
<g id="XMLID_36_">
	<path id="XMLID_130_" class="st0" d="M765.4,555h-731c-15.3,0-27.8-12.5-27.8-27.8V86.8C6.6,71.5,19.1,59,34.4,59h731
		c15.3,0,27.8,12.5,27.8,27.8v440.4C793.2,542.5,780.7,555,765.4,555z"/>
</g>
<g id="XMLID_62_">
	<path id="XMLID_129_" class="st1" d="M793.2,148H6.6V87c0-15.3,12.5-27.8,27.8-27.8h731c15.3,0,27.8,12.5,27.8,27.8V148L793.2,148z
		"/>
</g>
<g id="XMLID_90_">
	<g id="XMLID_85_">
		<path id="XMLID_127_" class="st2" d="M120.3,202.7H53.9c-3.1,0-5.7-3-5.7-6.1s2.6-6.1,5.7-6.1h66.4c3.1,0,5.7,3,5.7,6.1
			S123.6,202.7,120.3,202.7z"/>
	</g>
	<g id="XMLID_91_">
		<path id="XMLID_126_" class="st2" d="M143.4,230.5H53.9c-3.1,0-5.7-1.2-5.7-4.3s2.6-4.3,5.7-4.3h89.6c3.1,0,5.7,1.2,5.7,4.3
			S146.7,230.5,143.4,230.5z"/>
	</g>
	<g id="XMLID_100_">
		<path id="XMLID_125_" class="st2" d="M143.4,347H53.9c-3.1,0-5.7-3-5.7-6.1s2.6-6.1,5.7-6.1h89.6c3.1,0,5.7,3,5.7,6.1
			C149.2,344.1,146.7,347,143.4,347z"/>
	</g>
	<g id="XMLID_101_">
		<path id="XMLID_124_" class="st2" d="M111.6,374.8H53.7c-3.1,0-5.7-1.2-5.7-4.3c0-3.1,2.6-4.3,5.7-4.3h57.9c3.1,0,5.7,1.2,5.7,4.3
			C117.3,373.6,114.9,374.8,111.6,374.8z"/>
	</g>
	<g id="XMLID_106_">
		<path id="XMLID_123_" class="st2" d="M111.6,463.5H53.7c-3.1,0-5.7-3-5.7-6.1s2.6-6.1,5.7-6.1h57.9c3.1,0,5.7,3,5.7,6.1
			C117.3,460.6,114.9,463.5,111.6,463.5z"/>
	</g>
	<g id="XMLID_107_">
		<path id="XMLID_122_" class="st2" d="M111.6,491.4H53.7c-3.1,0-5.7-2.1-5.7-5.2s2.6-5.2,5.7-5.2h57.9c3.1,0,5.7,2.1,5.7,5.2
			S114.9,491.4,111.6,491.4z"/>
	</g>
	<g id="XMLID_92_">
		<path id="XMLID_121_" class="st3" d="M201.3,261.8h-89.6c-3.1,0-5.7-3-5.7-6.1s2.6-6.1,5.7-6.1h89.6c3.1,0,5.7,3,5.7,6.1
			C207.1,258.8,204.5,261.8,201.3,261.8z"/>
	</g>
	<g id="XMLID_96_">
		<path id="XMLID_120_" class="st3" d="M320,261.8h-89.6c-3.1,0-5.7-3-5.7-6.1s2.6-6.1,5.7-6.1H320c3.1,0,5.7,3,5.7,6.1
			S323.1,261.8,320,261.8z"/>
	</g>
	<g id="XMLID_97_">
		<path id="XMLID_119_" class="st3" d="M574.4,261.8h-89.6c-3.1,0-5.7-3-5.7-6.1s2.6-6.1,5.7-6.1h89.6c3.1,0,5.7,3,5.7,6.1
			C580.1,258.8,577.5,261.8,574.4,261.8z"/>
	</g>
	<g id="XMLID_98_">
		<path id="XMLID_118_" class="st3" d="M687.1,261.8h-89.6c-3.1,0-5.7-3-5.7-6.1s2.6-6.1,5.7-6.1h89.6c3.1,0,5.7,3,5.7,6.1
			C692.9,258.8,690.4,261.8,687.1,261.8z"/>
	</g>
	<g id="XMLID_99_">
		<path id="XMLID_117_" class="st3" d="M565.7,289.6h-89.6c-3.1,0-5.7-2.1-5.7-5.2s2.6-5.2,5.7-5.2h89.6c3.1,0,5.7,2.1,5.7,5.2
			C571.5,287.5,568.8,289.6,565.7,289.6z"/>
	</g>
	<g id="XMLID_104_">
		<path id="XMLID_116_" class="st3" d="M565.7,402.7h-89.6c-3.1,0-5.7-3-5.7-6.1s2.6-6.1,5.7-6.1h89.6c3.1,0,5.7,3,5.7,6.1
			C571.5,399.7,568.8,402.7,565.7,402.7z"/>
	</g>
	<g id="XMLID_105_">
		<path id="XMLID_115_" class="st3" d="M632.2,430.5h-89.6c-3.1,0-5.7-1.2-5.7-4.3c0-3.1,2.6-4.3,5.7-4.3h89.6
			c3.1,0,5.7,1.2,5.7,4.3S635.5,430.5,632.2,430.5z"/>
	</g>
	<g id="XMLID_93_">
		<path id="XMLID_114_" class="st3" d="M189.7,289.6h-78.1c-3.1,0-5.7-2.1-5.7-5.2s2.6-5.2,5.7-5.2h78.1c3.1,0,5.7,2.1,5.7,5.2
			S193,289.6,189.7,289.6z"/>
	</g>
	<g id="XMLID_95_">
		<path id="XMLID_113_" class="st3" d="M288.1,289.6H210c-3.1,0-5.7-2.1-5.7-5.2s2.6-5.2,5.7-5.2h78.1c3.1,0,5.7,2.1,5.7,5.2
			C293.9,287.5,291.3,289.6,288.1,289.6z"/>
	</g>
	<g id="XMLID_94_">
		<path id="XMLID_112_" class="st3" d="M340.1,319.2H111.6c-3.1,0-5.7-3-5.7-6.1s2.6-6.1,5.7-6.1h228.5c3.1,0,5.7,3,5.7,6.1
			C345.9,316.2,343.3,319.2,340.1,319.2z"/>
	</g>
	<g id="XMLID_103_">
		<path id="XMLID_111_" class="st3" d="M308.3,402.7H111.6c-3.1,0-5.7-3-5.7-6.1s2.6-6.1,5.7-6.1h196.7c3.1,0,5.7,3,5.7,6.1
			S311.4,402.7,308.3,402.7z"/>
	</g>
	<g id="XMLID_102_">
		<path id="XMLID_110_" class="st3" d="M340.1,430.5H111.6c-3.1,0-5.7-1.2-5.7-4.3c0-3.1,2.6-4.3,5.7-4.3h228.5
			c3.1,0,5.7,1.2,5.7,4.3C345.9,429.3,343.3,430.5,340.1,430.5z"/>
	</g>
</g>
<g id="XMLID_52_">
	<g>
		<path id="XMLID_17_" class="st2" d="M269.9,662.5c0.9-15.8,0.7-31.7,0-47.5c-3-57.7-0.7-94.1-0.7-119.3c0-15.1,9.7-64.4,34.1-67.1
			c26.6-3.1,65.6-10.6,126.4-7c82.6,4.9,88,23.7,87.7,76.9c-0.2,19.8,5.2,278.8,5.2,278.8c-87.7,33.6-250.8,3.5-250.8,3.5
			C278.6,767.7,266.4,724.6,269.9,662.5z"/>
	</g>
</g>
<g id="XMLID_49_">
	<path id="XMLID_33_" class="st4" d="M565.2,547.7c0,0,37.9,86.3,29.7,138.1c-5.6,35.3-87.3,63.5-111.5,57.6s-21.4-11.3,0.9-22.4
		s69-25.9,52.4-67.7c-16.5-41.7-44.9-127.5-44.9-127.5L565.2,547.7z"/>
	<path id="XMLID_32_" class="st2" d="M485.2,429.8c0,0,30.8,1.2,55,30.1c7.1,8.5,9.7,22.1,15.8,35.7c4.5,10.1,1.9,20.9,5,34.1
		c0,0,15.8,38.3,15.8,42.6c0,0-60.9,10.3-71.5,17C494.8,595.9,462.6,429.5,485.2,429.8z"/>
</g>
<g id="XMLID_46_">
	<path id="XMLID_31_" class="st4" d="M229,541.5c0,0-41.2,94.8-33,146.6c5.6,35.3,80.7,63.7,104.9,57.7c24.2-5.9,30.3-14.6,8-25.7
		c-22.3-11.1-76.4-34.6-59.8-76.5c16.5-41.7,48.7-117.9,48.7-117.9L229,541.5z"/>
	<path id="XMLID_30_" class="st2" d="M300.5,429.8c0,0-32.2,1.7-51.5,16.3c-11,8.3-13.4,21.6-14.6,39c-1.2,18.8-10.6,34.1-15.8,53.6
		c-3,10.6-7,32.3-7,34.8c0,0,49.7,3.1,69.7,9.2C293.5,586.5,323.1,429.5,300.5,429.8z"/>
</g>
<g id="XMLID_37_">
	<g id="XMLID_43_">
		<g id="XMLID_58_">
			<path id="XMLID_60_" class="st4" d="M429.2,426v-72.2h-74.3v69.9c0,0,2.3,47,39.5,47.5C423.3,471.7,429.2,426,429.2,426z"/>
			<path id="XMLID_59_" class="st5" d="M429.2,390.3c0,0-7.7,22.1-35,22.1c-17.9,0-39.1-20-39.1-26.6l-0.2-21.9l74.3,4V390.3z"/>
		</g>
	</g>
	
		<ellipse id="XMLID_24_" transform="matrix(0.9246 -0.3809 0.3809 0.9246 -93.2741 147.0985)" class="st4" cx="325" cy="309.2" rx="18.1" ry="23.3"/>
	
		<ellipse id="XMLID_23_" transform="matrix(0.4305 -0.9026 0.9026 0.4305 -11.2124 600.5638)" class="st4" cx="470.3" cy="309.2" rx="23.3" ry="18.1"/>
	<path id="XMLID_22_" class="st6" d="M425,350.7c-9.4,6.3-31.1,12.2-55.1,1.7c-1.9-0.9-3.7,1.2-3,3.1c3.1,10.3,12.7,22.4,33.9,22.1
		c18.1-0.3,25.2-15.5,27.7-23.5C429,352.1,426.7,349.5,425,350.7z"/>
</g>
<rect id="XMLID_20_" x="258.7" y="758.7" class="st7" width="271.7" height="9.4"/>
<g id="XMLID_4_">
	<g id="XMLID_84_">
		<circle id="XMLID_128_" class="st8" cx="751.8" cy="103.6" r="16.9"/>
	</g>
	<g id="XMLID_86_">
		<circle id="XMLID_109_" class="st8" cx="698.9" cy="103.6" r="16.9"/>
	</g>
	<circle id="XMLID_89_" class="st8" cx="646.2" cy="103.3" r="14.8"/>
</g>
<polygon id="XMLID_131_" class="st0" points="702.1,767.9 640.5,767.9 632.8,652.1 709.5,652.1 "/>
<polygon id="XMLID_42_" class="st3" points="707.1,646.5 635.3,646.5 637.9,633.3 704.7,633.3 "/>
<polygon id="XMLID_38_" class="st9" points="713.5,656.9 629,656.9 631.5,643.6 710.9,643.6 "/>
<g id="XMLID_151_">
	<g>
		<g>
			<g>
				<defs>
					<polygon id="SVGID_1_" points="702.1,767.2 640.5,767.2 632.8,651.4 709.5,651.4 					"/>
				</defs>
				<clipPath id="SVGID_2_">
					<use xlink:href="#SVGID_1_"  style="overflow:visible;"/>
				</clipPath>
				<rect id="XMLID_44_" x="627.3" y="683.9" class="st10" width="88.2" height="44.2"/>
			</g>
		</g>
	</g>
</g>
<path id="XMLID_5_" class="st2" d="M536.8,509.6"/>
<g>
	<path id="XMLID_35_" class="st11" d="M328.5,304.9c0,0-41.7-37.9-21.2-78.3c3.5-7,4.9-14.6,4.7-22.3c-0.2-6.8,1.7-15.5,9.9-23.3
		c16.2-15.7,37-29,68-28s54.8,10.4,66.6,0c10.3-8.9,12.7-3.1,11.1,12.7c-0.5,5.2,1,10.3,4.2,14.3c4.3,5.4,9.6,14.1,9.7,25
		c0.2,7,1.6,13.7,4.3,20c6.6,14.8,13.2,45-17,81.9"/>
	<rect id="XMLID_21_" x="48.8" y="767.9" class="st11" width="707.5" height="30.4"/>
	<ellipse id="XMLID_1_" class="st4" cx="396.1" cy="299.5" rx="73.6" ry="106.6"/>
	<ellipse id="XMLID_3_" class="st11" cx="396.5" cy="218.3" rx="82.4" ry="39.1"/>
	<path class="st12" d="M489.2,594.2v5.7H470V578h18.8v5.7H478v2.7h8.7v5.2H478v2.6H489.2L489.2,594.2z M459.6,599.8l-4-7.2h-2.2v7.2
		h-7.8V578h12.3c3,0,5.3,0.6,6.8,1.8s2.3,3,2.3,5.5c0,3.2-1.4,5.3-4.1,6.5l5.4,8.1L459.6,599.8L459.6,599.8z M458.4,583.9
		c-0.4-0.3-1.1-0.5-2.1-0.5h-2.8v4h2.8c1,0,1.7-0.1,2.1-0.4c0.4-0.4,0.6-1,0.6-1.6S458.8,584.4,458.4,583.9L458.4,583.9z
		 M431.5,600.1c-7.3,0-10.9-3.2-10.9-9.7V578h8v13c-0.1,0.9,0.2,1.8,0.7,2.5c0.3,0.3,0.6,0.5,1,0.7c0.4,0.1,0.8,0.2,1.2,0.2
		c0.4,0,0.8,0,1.2-0.2c0.4-0.1,0.7-0.4,1-0.7c0.6-0.7,0.8-1.6,0.8-2.5v-13h8v12.4C442.4,596.9,438.8,600.1,431.5,600.1L431.5,600.1z
		 M411.4,599.8h-8v-16.2h-7.1V578h22.2v5.7h-7.1V599.8L411.4,599.8z M383.2,600.1c-7.3,0-10.9-3.2-10.9-9.7V578h8v13
		c-0.1,0.9,0.2,1.8,0.7,2.5c0.3,0.3,0.6,0.5,1,0.7c0.4,0.1,0.8,0.2,1.2,0.2c0.4,0,0.8,0,1.2-0.2c0.4-0.1,0.7-0.4,1-0.7
		c0.6-0.7,0.8-1.6,0.8-2.5v-13h8v12.4C394.2,596.9,390.5,600.1,383.2,600.1L383.2,600.1z M359.5,586.7h8.7v5.7h-8.7v7.5h-8V578h18.8
		v5.7h-10.8V586.7L359.5,586.7z M411.5,536.1h-8.9l-4.2-8.1l-1.8,2.4v5.7h-8v-21.7h8v8.1l5.9-8.1h8.5l-7,8.6L411.5,536.1z
		 M376.3,530.6c1.1,0,1.8-0.2,2.3-0.7c0.6-0.6,0.9-1.4,0.9-2.3l7,1.7c-1.2,4.7-4.6,7-10.4,7c-2.1,0.1-4.2-0.4-6.1-1.3
		c-1.7-0.9-3.1-2.2-4-3.8c-1-1.9-1.4-3.9-1.4-6c-0.1-2.1,0.4-4.2,1.4-6c0.9-1.6,2.3-3,4-3.8c1.9-0.9,4-1.4,6.1-1.3
		c2.4-0.1,4.7,0.5,6.8,1.6c0.9,0.5,1.7,1.3,2.3,2.1c0.6,0.9,1,1.8,1.2,2.8l-6.8,2.6c-0.2-1.3-0.5-2.2-1-2.7c-0.3-0.3-0.7-0.4-1-0.6
		c-0.4-0.1-0.8-0.2-1.2-0.1c-0.5,0-1.1,0.1-1.5,0.3c-0.5,0.2-0.9,0.6-1.1,1c-0.6,0.9-0.9,2.2-0.9,4.1c0,1.9,0.3,3.2,0.9,4.1
		c0.3,0.4,0.7,0.8,1.1,1C375.3,530.5,375.8,530.7,376.3,530.6z M356.8,536.1l-1-4.1h-6.1l-1.1,4.1h-7.9l7.3-21.7h9.6l7.4,21.7H356.8
		L356.8,536.1z M352.8,519.9h-0.1l-0.9,3.7l-0.9,3.6h3.7L352.8,519.9z M331.4,528h-6.2v8.1h-8v-21.7h8v8h6.2v-8h8v21.7h-8V528z
		 M351.1,562.6v5.8c0,0-11.9,0.5-11.3-11.7C339.9,545.3,351,546,351,546v5.6c0,0-3.3-0.3-3.2,5.5C348,562.9,350.4,562.5,351.1,562.6
		L351.1,562.6z M394.7,551.5v-5.8c0,0,11.2-1,11.3,11.4c-0.1,11.6-11.3,11-11.3,11v-5.7c0,0,3.5,0,3.2-5.9
		C397.6,550.7,394.7,551.5,394.7,551.5L394.7,551.5z M455.9,567.8h-8.7l-4-7.2H441v7.2h-7.8V546h12.3c3,0,5.3,0.6,6.8,1.8
		s2.3,3,2.3,5.5c0,3.2-1.4,5.3-4.1,6.4L455.9,567.8z M446,552c-0.4-0.3-1.1-0.5-2.1-0.5H441v4h2.9c1,0,1.7-0.1,2.1-0.4
		c0.4-0.4,0.6-1,0.6-1.6C446.7,553,446.4,552.4,446,552z M419.3,568.2c-7.3,0-11-3.2-11-9.7V546h8v13c-0.1,0.9,0.2,1.8,0.7,2.5
		c0.3,0.3,0.6,0.5,1,0.7c0.4,0.1,0.8,0.2,1.2,0.2c0.4,0,0.8,0,1.2-0.2c0.4-0.1,0.7-0.4,1-0.7c0.6-0.7,0.8-1.6,0.8-2.5v-13h8v12.4
		C430.3,564.9,426.6,568.2,419.3,568.2z M332.8,567.8h-8v-7.6l-7.9-14.3h8l2.4,5l1.6,4l1.6-4l2.4-5h7.9l-7.9,14.3v7.6H332.8z"/>
	<rect id="XMLID_2_" x="263.3" y="595.2" class="st13" width="262.5" height="163.5"/>
</g>
<g id="XMLID_40_">
	<g id="XMLID_39_">
		
			<rect id="XMLID_156_" x="418.6" y="636.1" transform="matrix(0.9943 -0.1063 0.1063 0.9943 -69.3495 52.7069)" class="st2" width="82.3" height="81.6"/>
		<path id="XMLID_153_" class="st14" d="M495.1,633.3l8.3,78.6l-79.3,8.5l-8.3-78.8L495.1,633.3 M497.4,630.5l-2.4,0.3l-79.3,8.5
			l-2.4,0.3l0.3,2.4l8.3,78.6l0.3,2.4l2.4-0.3l79.3-8.5l2.4-0.3l-0.3-2.4l-8.5-78.6L497.4,630.5L497.4,630.5z"/>
	</g>
	<path id="XMLID_88_" class="st15" d="M490.7,675.7c-1.9,1.6-3.7,3-5.4,4.3c-0.3-0.3-0.7-0.9-1-1.2c-1.2-1.4-3-1.7-4.7-1.4
		c-1.2,0.3-2.1,1-2.4,2.4s0.2,2.6,1.2,3.3s2.3,1,3.3,1.6c2.6,1,5.2,1.7,7.7,3c4.3,2.3,6.4,6.4,5.7,11.3c-0.3,2.8-1.9,5.2-4.3,6.6
		c-5.6,3.3-11.3,3.5-17,0.3c-1.7-1-3.1-2.4-4.3-4.3c1.9-1.4,3.8-2.8,5.7-4.2c0.5,0.5,1,1,1.4,1.6c2.4,2.3,5.7,3,8.5,1.6
		c1.4-0.5,2.3-1.6,2.3-3.1c0-1.6-0.7-2.6-2.1-3.3c-1.9-0.7-3.8-1.4-5.9-2.1c-1.6-0.7-3.3-1.2-4.9-2.1c-4-2.3-5.9-6.6-5-11
		c0.7-4,3.8-7.1,8.3-8c4.9-0.9,9-0.2,12.3,4C490.4,675.2,490.4,675.4,490.7,675.7z"/>
	<path id="XMLID_87_" class="st15" d="M449,700.8c0.7,0.7,1,1.4,1.6,1.9c1.2,1.2,2.6,1.6,4.3,1.2c1.6-0.3,2.4-1.2,2.6-3
		c0-0.7,0-1.6,0-2.3c-0.9-7.8-1.6-15.7-2.6-23.5c-0.2-1.2,0.2-1.6,1.4-1.7c1.6,0,3.1-0.2,4.7-0.5c1-0.2,1.4,0.2,1.6,1.2
		c0.7,7.7,1.6,15.1,2.4,22.8c0,0.9,0.2,1.6,0.2,2.4c0.3,6.3-2.4,9.9-8.5,11.3c-5,1.2-9.9-0.5-12.9-4.5c-0.5-0.9-0.5-1.2,0.3-1.7
		C445.7,703.4,447.3,702.2,449,700.8z"/>
</g>
</svg>
